<svg width="152" height="59" viewBox="0 0 152 59" fill="none" xmlns="http://www.w3.org/2000/svg">
<rect width="152" height="59" rx="8" fill="url(#paint0_linear_264_654)"/>
<g clip-path="url(#clip0_264_654)">
<path d="M84.8613 33.674L88.5328 30.0026L84.8613 26.3336V21.1412H79.6715L76 17.4723L72.3285 21.1412H67.1386V26.3336L63.4672 30.0026L67.1386 33.674V38.8639H72.3285L76 42.5354L79.6715 38.8639H84.8613V33.674Z" fill="#FCD170"/>
<path d="M76 42.7893C75.934 42.7893 75.8705 42.7639 75.8197 42.7157L72.2244 39.1178H67.1387C66.999 39.1178 66.8848 39.0035 66.8848 38.8639V33.7782L63.2895 30.1828C63.2412 30.1346 63.2158 30.0711 63.2158 30.0026C63.2158 29.934 63.2437 29.8705 63.2895 29.8223L66.8848 26.227V21.1412C66.8848 21.0016 66.999 20.8873 67.1387 20.8873H72.2244L75.8197 17.292C75.868 17.2438 75.9314 17.2184 76 17.2184C76.0686 17.2184 76.132 17.2463 76.1803 17.292L79.7756 20.8873H84.8613C85.001 20.8873 85.1152 21.0016 85.1152 21.1412V26.227L88.7105 29.8223C88.7588 29.8705 88.7842 29.934 88.7842 30.0026C88.7842 30.0711 88.7562 30.1346 88.7105 30.1828L85.1152 33.7782V38.8639C85.1152 39.0035 85.001 39.1178 84.8613 39.1178H79.7756L76.1803 42.7131C76.1295 42.7639 76.066 42.7893 76 42.7893ZM67.3926 38.61H72.3285C72.3971 38.61 72.4605 38.6379 72.5088 38.6836L76 42.1774L79.4912 38.6862C79.5395 38.6379 79.6029 38.6125 79.6715 38.6125H84.6074V33.674C84.6074 33.6055 84.6354 33.542 84.6811 33.4938L88.1723 30.0026L84.6811 26.5114C84.6328 26.4631 84.6074 26.3996 84.6074 26.3311V21.3951H79.6715C79.6029 21.3951 79.5395 21.3672 79.4912 21.3215L76 17.8303L72.5088 21.3215C72.4605 21.3698 72.3971 21.3951 72.3285 21.3951H67.3926V26.3311C67.3926 26.3996 67.3646 26.4631 67.3189 26.5114L63.8277 30.0026L67.3189 33.4938C67.3672 33.542 67.3926 33.6055 67.3926 33.674V38.61Z" fill="#FFCF75"/>
<path d="M69.4543 30.0025C69.4543 30.8621 69.6236 31.7133 69.9525 32.5074C70.2815 33.3016 70.7637 34.0232 71.3715 34.631C71.9793 35.2388 72.7009 35.721 73.4951 36.0499C74.2892 36.3789 75.1404 36.5482 76 36.5482C76.8596 36.5482 77.7108 36.3789 78.5049 36.0499C79.2991 35.721 80.0207 35.2388 80.6285 34.631C81.2363 34.0232 81.7185 33.3016 82.0474 32.5074C82.3764 31.7133 82.5457 30.8621 82.5457 30.0025C82.5457 28.2665 81.8561 26.6015 80.6285 25.374C79.4009 24.1464 77.736 23.4568 76 23.4568C74.264 23.4568 72.599 24.1464 71.3715 25.374C70.1439 26.6015 69.4543 28.2665 69.4543 30.0025Z" fill="#FFA500"/>
<path d="M76 36.8021C74.1846 36.8021 72.4758 36.0937 71.191 34.8115C69.9062 33.5267 69.2004 31.8205 69.2004 30.0025C69.2004 28.1845 69.9088 26.4783 71.191 25.1935C72.4758 23.9087 74.182 23.2029 76 23.2029C77.8154 23.2029 79.5242 23.9113 80.809 25.1935C82.0937 26.4783 82.7996 28.1845 82.7996 30.0025C82.7996 31.8205 82.0937 33.5267 80.809 34.8115C79.5242 36.0962 77.8154 36.8021 76 36.8021ZM76 23.7107C74.3191 23.7107 72.7398 24.3658 71.5515 25.5541C70.3633 26.7423 69.7082 28.3216 69.7082 30.0025C69.7082 31.6833 70.3633 33.2626 71.5515 34.4509C72.7398 35.6392 74.3191 36.2943 76 36.2943C77.6808 36.2943 79.2601 35.6392 80.4484 34.4509C81.6367 33.2626 82.2918 31.6833 82.2918 30.0025C82.2918 28.3216 81.6367 26.7423 80.4484 25.5541C79.2601 24.3658 77.6808 23.7107 76 23.7107Z" fill="#FFCF75"/>
</g>
<defs>
<linearGradient id="paint0_linear_264_654" x1="76" y1="0" x2="76" y2="59" gradientUnits="userSpaceOnUse">
<stop stop-color="#FFD57B"/>
<stop offset="1" stop-color="#FFF6EE"/>
</linearGradient>
<clipPath id="clip0_264_654">
<rect width="26" height="26" fill="white" transform="translate(63 17)"/>
</clipPath>
</defs>
</svg>
