<svg width="152" height="59" viewBox="0 0 152 59" fill="none" xmlns="http://www.w3.org/2000/svg">
<rect width="152" height="59" rx="8" fill="url(#paint0_linear_264_653)"/>
<path d="M93 37.5C99.9035 37.5 105.5 31.9035 105.5 25C105.5 24.4216 104.633 24.326 104.334 24.821C102.911 27.1757 100.327 28.75 97.375 28.75C92.8876 28.75 89.25 25.1124 89.25 20.625C89.25 17.6731 90.8242 15.0888 93.179 13.6659C93.674 13.3668 93.5784 12.5 93 12.5C86.0964 12.5 80.5 18.0964 80.5 25C80.5 31.9035 86.0964 37.5 93 37.5Z" fill="white"/>
<circle cx="48.5" cy="24.5" r="2.5" fill="white"/>
<circle cx="48.5" cy="24.5" r="2.5" fill="white"/>
<circle cx="48.5" cy="24.5" r="2.5" fill="white"/>
<circle cx="66.5" cy="35.5" r="1.5" fill="white"/>
<circle cx="66.5" cy="35.5" r="1.5" fill="white"/>
<circle cx="66.5" cy="35.5" r="1.5" fill="white"/>
<circle cx="66" cy="15" r="1" fill="white"/>
<circle cx="66" cy="15" r="1" fill="white"/>
<circle cx="66" cy="15" r="1" fill="white"/>
<circle cx="117" cy="23" r="1" fill="white"/>
<circle cx="117" cy="23" r="1" fill="white"/>
<circle cx="117" cy="23" r="1" fill="white"/>
<circle cx="137" cy="13" r="1" fill="white"/>
<circle cx="137" cy="13" r="1" fill="white"/>
<circle cx="137" cy="13" r="1" fill="white"/>
<circle cx="132" cy="49" r="1" fill="white"/>
<circle cx="132" cy="49" r="1" fill="white"/>
<circle cx="132" cy="49" r="1" fill="white"/>
<circle cx="12" cy="16" r="1" fill="white"/>
<circle cx="12" cy="16" r="1" fill="white"/>
<circle cx="12" cy="16" r="1" fill="white"/>
<circle cx="19" cy="43" r="1" fill="white"/>
<circle cx="19" cy="43" r="1" fill="white"/>
<circle cx="19" cy="43" r="1" fill="white"/>
<defs>
<linearGradient id="paint0_linear_264_653" x1="76" y1="0" x2="76" y2="59" gradientUnits="userSpaceOnUse">
<stop stop-color="#006DBB"/>
<stop offset="1" stop-color="#001320"/>
</linearGradient>
</defs>
</svg>
