<svg width="152" height="59" viewBox="0 0 152 59" fill="none" xmlns="http://www.w3.org/2000/svg">
<rect width="152" height="59" rx="8" fill="#D9D9D9"/>
<path d="M69.4922 21.5273L64.6289 36H61.2188L67.5938 18.9375H69.7734L69.4922 21.5273ZM73.5586 36L68.6719 21.5273L68.3789 18.9375H70.5703L76.9805 36H73.5586ZM73.3359 29.6602V32.2031H64.1836V29.6602H73.3359ZM85.4883 33.3047V27.457C85.4883 26.8164 85.3203 26.3086 84.9844 25.9336C84.6562 25.5508 84.1367 25.3594 83.4258 25.3594C83.0117 25.3594 82.6484 25.4297 82.3359 25.5703C82.0312 25.7109 81.7969 25.9102 81.6328 26.168C81.4688 26.418 81.3867 26.707 81.3867 27.0352H78.2812C78.2812 26.332 78.5 25.6836 78.9375 25.0898C79.375 24.4883 79.9922 24.0039 80.7891 23.6367C81.5859 23.2695 82.5234 23.0859 83.6016 23.0859C84.5625 23.0859 85.418 23.25 86.168 23.5781C86.9258 23.8984 87.5195 24.3828 87.9492 25.0312C88.3867 25.6797 88.6055 26.4961 88.6055 27.4805V33.0117C88.6055 33.6445 88.6445 34.1875 88.7227 34.6406C88.8086 35.0859 88.9336 35.4727 89.0977 35.8008V36H85.9453C85.7969 35.6797 85.6836 35.2734 85.6055 34.7812C85.5273 34.2812 85.4883 33.7891 85.4883 33.3047ZM85.9219 28.2773L85.9453 30.1172H83.9883C83.0117 30.1172 82.2852 30.3086 81.8086 30.6914C81.3398 31.0664 81.1055 31.5703 81.1055 32.2031C81.1055 32.6719 81.2656 33.0664 81.5859 33.3867C81.9141 33.6992 82.3633 33.8555 82.9336 33.8555C83.4805 33.8555 83.957 33.7461 84.3633 33.5273C84.7695 33.3008 85.0859 33.0273 85.3125 32.707C85.5391 32.3867 85.6602 32.082 85.6758 31.793L86.5664 33.1289C86.457 33.4492 86.293 33.7891 86.0742 34.1484C85.8555 34.5078 85.5742 34.8438 85.2305 35.1562C84.8867 35.4688 84.4727 35.7266 83.9883 35.9297C83.5039 36.1328 82.9414 36.2344 82.3008 36.2344C81.4805 36.2344 80.7461 36.0703 80.0977 35.7422C79.4492 35.4141 78.9375 34.9648 78.5625 34.3945C78.1875 33.8242 78 33.1758 78 32.4492C78 31.1211 78.4961 30.0938 79.4883 29.3672C80.4883 28.6406 81.9375 28.2773 83.8359 28.2773H85.9219Z" fill="black"/>
</svg>
