<svg width="152" height="59" viewBox="0 0 152 59" fill="none" xmlns="http://www.w3.org/2000/svg">
<rect width="152" height="59" rx="8" fill="#D9D9D9"/>
<path d="M72.3281 23.3516L69.0859 33H66.8125L71.0625 21.625H72.5156L72.3281 23.3516ZM75.0391 33L71.7812 23.3516L71.5859 21.625H73.0469L77.3203 33H75.0391ZM74.8906 28.7734V30.4688H68.7891V28.7734H74.8906ZM82.9922 31.2031V27.3047C82.9922 26.8776 82.8802 26.5391 82.6562 26.2891C82.4375 26.0339 82.0911 25.9062 81.6172 25.9062C81.3411 25.9062 81.099 25.9531 80.8906 26.0469C80.6875 26.1406 80.5312 26.2734 80.4219 26.4453C80.3125 26.612 80.2578 26.8047 80.2578 27.0234H78.1875C78.1875 26.5547 78.3333 26.1224 78.625 25.7266C78.9167 25.3255 79.3281 25.0026 79.8594 24.7578C80.3906 24.513 81.0156 24.3906 81.7344 24.3906C82.375 24.3906 82.9453 24.5 83.4453 24.7188C83.9505 24.9323 84.3464 25.2552 84.6328 25.6875C84.9245 26.1198 85.0703 26.6641 85.0703 27.3203V31.0078C85.0703 31.4297 85.0964 31.7917 85.1484 32.0938C85.2057 32.3906 85.2891 32.6484 85.3984 32.8672V33H83.2969C83.1979 32.7865 83.1224 32.5156 83.0703 32.1875C83.0182 31.8542 82.9922 31.526 82.9922 31.2031ZM83.2812 27.8516L83.2969 29.0781H81.9922C81.3411 29.0781 80.8568 29.2057 80.5391 29.4609C80.2266 29.7109 80.0703 30.0469 80.0703 30.4688C80.0703 30.7812 80.1771 31.0443 80.3906 31.2578C80.6094 31.4661 80.9089 31.5703 81.2891 31.5703C81.6536 31.5703 81.9714 31.4974 82.2422 31.3516C82.513 31.2005 82.724 31.0182 82.875 30.8047C83.026 30.5911 83.1068 30.388 83.1172 30.1953L83.7109 31.0859C83.638 31.2995 83.5286 31.526 83.3828 31.7656C83.237 32.0052 83.0495 32.2292 82.8203 32.4375C82.5911 32.6458 82.3151 32.8177 81.9922 32.9531C81.6693 33.0885 81.2943 33.1562 80.8672 33.1562C80.3203 33.1562 79.8307 33.0469 79.3984 32.8281C78.9661 32.6094 78.625 32.3099 78.375 31.9297C78.125 31.5495 78 31.1172 78 30.6328C78 29.7474 78.3307 29.0625 78.9922 28.5781C79.6589 28.0938 80.625 27.8516 81.8906 27.8516H83.2812Z" fill="black"/>
</svg>
