<svg width="70" height="70" viewBox="0 0 70 70" fill="none" xmlns="http://www.w3.org/2000/svg">
<path fill-rule="evenodd" clip-rule="evenodd" d="M6.99995 3.5C6.50525 3.49987 6.01614 3.60461 5.56487 3.80732C5.1136 4.01002 4.71044 4.30609 4.38195 4.676L3.52445 7.413V7.441L3.53845 7.532L3.58045 7.889L3.73095 9.254C3.86045 10.43 4.03545 12.103 4.22095 14.084C4.60595 18.0565 5.03645 23.24 5.25345 28.154C5.30141 29.0762 5.71187 29.9421 6.39541 30.563C7.07896 31.1839 7.98018 31.5095 8.90274 31.4689C9.82529 31.4282 10.6944 31.0246 11.3207 30.3461C11.947 29.6675 12.2798 28.7688 12.2465 27.846C12.0128 23.0291 11.6616 18.2187 11.193 13.419C11.088 12.348 10.9935 11.3645 10.9025 10.5H28C28.9282 10.5 29.8184 10.1313 30.4748 9.47487C31.1312 8.8185 31.5 7.92826 31.5 7C31.5 6.07174 31.1312 5.1815 30.4748 4.52513C29.8184 3.86875 28.9282 3.5 28 3.5H6.99995ZM43.75 3.5C42.8217 3.5 41.9315 3.86875 41.2751 4.52513C40.6187 5.1815 40.25 6.07174 40.25 7C40.25 7.92826 40.6187 8.8185 41.2751 9.47487C41.9315 10.1313 42.8217 10.5 43.75 10.5H59.15L58.8945 13.4575C58.5515 17.4825 58.156 22.7815 57.932 27.8425C57.8902 28.7698 58.2185 29.6758 58.8447 30.361C59.4709 31.0463 60.3436 31.4547 61.271 31.4965C62.1983 31.5383 63.1042 31.21 63.7895 30.5838C64.4747 29.9576 64.8832 29.0848 64.9249 28.1575C65.1419 23.2225 65.534 18.025 65.87 14.0455C66.0439 11.9746 66.2318 9.90488 66.4335 7.8365L66.4685 7.476L66.479 7.385V7.357C66.5289 6.87005 66.4761 6.37804 66.324 5.91275C66.172 5.44746 65.924 5.01924 65.5962 4.65576C65.2683 4.29227 64.8678 4.0016 64.4206 3.80252C63.9734 3.60344 63.4895 3.50038 63 3.5H43.75ZM12.2465 42.154C12.2704 41.6927 12.2029 41.2311 12.0476 40.796C11.8924 40.3609 11.6525 39.9609 11.3419 39.6189C11.0313 39.277 10.6561 38.9999 10.2378 38.8037C9.81962 38.6075 9.3667 38.496 8.90518 38.4756C8.44366 38.4553 7.98269 38.5265 7.54884 38.6852C7.11499 38.8439 6.71684 39.087 6.37737 39.4003C6.0379 39.7136 5.76381 40.091 5.57091 40.5108C5.37801 40.9305 5.27012 41.3843 5.25345 41.846C5.02495 46.5437 4.68185 51.2351 4.22445 55.916C4.0272 57.9828 3.81253 60.0478 3.58045 62.111L3.53845 62.468L3.52795 62.559V62.58L3.52445 62.587C3.4661 63.078 3.51246 63.5758 3.66048 64.0476C3.80849 64.5195 4.05479 64.9546 4.38316 65.3243C4.71154 65.694 5.11452 65.9899 5.56556 66.1926C6.01661 66.3952 6.50547 66.5 6.99995 66.5H28C28.9282 66.5 29.8184 66.1313 30.4748 65.4749C31.1312 64.8185 31.5 63.9283 31.5 63C31.5 62.0717 31.1312 61.1815 30.4748 60.5251C29.8184 59.8687 28.9282 59.5 28 59.5H10.9025C11.5196 53.7324 11.9678 47.9479 12.2465 42.154ZM64.9215 41.846C64.9161 41.3768 64.8164 40.9135 64.6284 40.4836C64.4404 40.0537 64.1678 39.666 63.827 39.3435C63.4861 39.021 63.0839 38.7704 62.6442 38.6065C62.2045 38.4426 61.7364 38.3688 61.2676 38.3895C60.7988 38.4101 60.339 38.5248 59.9154 38.7268C59.4919 38.9287 59.1133 39.2137 58.8021 39.5649C58.4909 39.9161 58.2535 40.3263 58.104 40.7711C57.9546 41.2159 57.896 41.6861 57.932 42.154C58.2043 47.9446 58.6104 53.7282 59.15 59.5H43.75C42.8217 59.5 41.9315 59.8687 41.2751 60.5251C40.6187 61.1815 40.25 62.0717 40.25 63C40.25 63.9283 40.6187 64.8185 41.2751 65.4749C41.9315 66.1313 42.8217 66.5 43.75 66.5H63C63.4898 66.5001 63.9741 66.3974 64.4217 66.1985C64.8693 65.9997 65.2702 65.7091 65.5985 65.3455C65.9267 64.982 66.175 64.5536 66.3273 64.0881C66.4795 63.6226 66.5324 63.1302 66.4825 62.643V62.636L66.479 62.615L66.4685 62.524L66.4335 62.1635L66.3005 60.795C66.1474 59.1823 66.0027 57.5687 65.8665 55.9545C65.4616 51.2581 65.1466 46.5544 64.9215 41.846ZM24.535 28C25.4632 28 26.3535 27.6313 27.0098 26.9749C27.6662 26.3185 28.035 25.4283 28.035 24.5C28.035 23.5717 27.6662 22.6815 27.0098 22.0251C26.3535 21.3687 25.4632 21 24.535 21H24.5C23.5717 21 22.6815 21.3687 22.0251 22.0251C21.3687 22.6815 21 23.5717 21 24.5C21 25.4283 21.3687 26.3185 22.0251 26.9749C22.6815 27.6313 23.5717 28 24.5 28H24.535ZM45.535 28C46.4632 28 47.3535 27.6313 48.0098 26.9749C48.6662 26.3185 49.035 25.4283 49.035 24.5C49.035 23.5717 48.6662 22.6815 48.0098 22.0251C47.3535 21.3687 46.4632 21 45.535 21H45.5C44.5717 21 43.6815 21.3687 43.0251 22.0251C42.3687 22.6815 42 23.5717 42 24.5C42 25.4283 42.3687 26.3185 43.0251 26.9749C43.6815 27.6313 44.5717 28 45.5 28H45.535ZM47.733 39.305C48.4477 39.8972 48.8979 40.7491 48.9845 41.6733C49.0712 42.5975 48.7872 43.5182 48.195 44.233V44.2365L48.188 44.24L48.181 44.2505L48.1565 44.2785L48.0935 44.352C48.041 44.4115 47.9745 44.492 47.887 44.583C46.8851 45.6595 45.7756 46.6305 44.576 47.481C42.399 49.021 39.0705 50.75 35 50.75C30.9295 50.75 27.601 49.0245 25.424 47.481C24.2242 46.6306 23.1148 45.6595 22.113 44.583C22.0431 44.5069 21.9743 44.4299 21.9065 44.352L21.8435 44.2785L21.819 44.2505L21.812 44.24H21.805V44.233C21.2109 43.5196 20.921 42.5995 21.0053 41.675C21.0897 40.7505 21.5378 39.8973 22.2512 39.3032C22.9646 38.7092 23.8847 38.4228 24.8092 38.5071C25.7337 38.5915 26.5869 39.0396 27.181 39.753L27.1915 39.767L27.2825 39.8685C27.9442 40.573 28.6747 41.2096 29.463 41.769C30.996 42.854 32.9175 43.75 34.9965 43.75C37.079 43.75 38.997 42.8505 40.5335 41.769C41.357 41.1824 42.1171 40.5114 42.8015 39.767L42.812 39.753C42.9158 39.6288 43.0281 39.5118 43.148 39.403L47.733 39.305ZM47.733 39.305L43.148 39.403C43.7725 38.8376 44.5799 38.5164 45.4222 38.4984C46.2644 38.4804 47.0849 38.7668 47.733 39.305Z" fill="white"/>
</svg>
